<svg width="50" height="50" viewBox="0 0 50 50" fill="none" xmlns="http://www.w3.org/2000/svg">
<path d="M18.1593 24.6156L15.9968 25.1585C15.8136 25.2045 15.6472 25.3015 15.5169 25.4381L13.4055 27.6508M18.1593 24.6156L12.6879 19.4091C12.4782 19.2096 12.1935 19.1125 11.9046 19.1308C6.70664 19.4593 -1.46052 17.2378 1.7434 7.06433C1.96379 6.36452 2.85341 6.18457 3.35566 6.71941L7.58188 11.22C7.70937 11.3557 7.87143 11.4558 8.05405 11.4923C9.5774 11.7972 11.9353 11.4632 11.1985 8.01759C11.1608 7.84157 11.069 7.67981 10.9423 7.55194L6.9995 3.5719C6.49612 3.06378 6.67566 2.21061 7.3618 2.00866C12.0992 0.614327 19.3298 0.885323 19.0882 12.21C19.0823 12.4874 19.1863 12.7661 19.3821 12.9628L25.7929 19.4017L26.4036 20.0151M18.1593 24.6156L19.9914 26.4557M25.4878 31.9762L24.6494 33.9413C24.5981 34.0613 24.5239 34.1702 24.4308 34.2618L22.1859 36.4696M25.4878 31.9762L23.4988 29.9785M25.4878 31.9762L30.0639 36.5726C30.2611 36.7707 30.3649 37.0494 30.3585 37.3287C30.1133 47.9906 38.045 49.4935 42.3318 48.884C42.5013 48.8599 42.6576 48.7881 42.7911 48.6809L43.2471 48.3145C43.7104 47.9422 43.7487 47.2505 43.3294 46.8294L38.5204 41.9993C38.3847 41.863 38.2889 41.6901 38.2574 41.5003C37.7679 38.5524 39.9606 38.1618 41.3802 38.3649C41.5715 38.3923 41.744 38.4897 41.8803 38.6266L46.7646 43.5323C47.1554 43.9249 47.791 43.9249 48.1819 43.5323L48.4443 43.2687C48.6062 43.1061 48.7088 42.8852 48.7287 42.6565C49.7038 31.4593 42.0969 30.1397 37.6489 30.9411C37.3004 31.0038 36.9411 30.8989 36.6966 30.6427L30.0679 23.6955M26.4036 20.0151L23.1975 23.2354M26.4036 20.0151L37.7018 8.36069M19.9914 26.4557L23.1975 23.2354M19.9914 26.4557L23.4988 29.9785M23.1975 23.2354L18.4645 18.4816M37.7018 8.36069L38.3125 7.74731M37.7018 8.36069L41.3661 12.041M38.3125 7.74731V5.60386C38.3125 5.22572 38.5258 4.87992 38.8638 4.71022L45.605 1.32481C45.991 1.13099 46.4577 1.20684 46.7624 1.51289L48.4682 3.22609C48.783 3.54231 48.8502 4.02887 48.6329 4.41862L45.0111 10.9146C44.8345 11.2313 44.5003 11.4277 44.1376 11.4277H41.9768M38.3125 7.74731L41.9768 11.4277M41.9768 11.4277L41.3661 12.041M41.3661 12.041L23.4988 29.9785M13.4055 27.6508L22.1859 36.4696M13.4055 27.6508L11.8212 29.3112M22.1859 36.4696L20.5501 38.0784M20.5501 38.0784L10.0915 48.3645C9.97581 48.4783 9.83225 48.5637 9.67591 48.6072C3.74964 50.2561 -0.651231 46.3864 1.59826 40.143C1.64354 40.0173 1.71702 39.9005 1.80924 39.8039L11.8212 29.3112M20.5501 38.0784L11.8212 29.3112" stroke="white" stroke-width="2"/>
</svg>
